The Blue Light (Das Blaue Licht) is widely regarded as the best of the German "mountain" films of the early 1930s. Leni Riefenstahl both directed and starred in this film, playing a free-spirited gamine who dares to climb a precipitous mountain peak. Because she is the only member of her community to accomplish this, she is regarded as something of a witch. When she discovers a hidden crystal cave, the villagers change their tune and follow her up the mountain, stripping the cave of its riches. She responds to this symbolic rape by killing herself. It was The Blue Light which impressed Hitler and Goebbels enough to engage Leni Riefenstahl to direct the Nazi party's subsequent propaganda films. 


 
http://www.imdb.com/title/tt0022694/

 
http://en.wikipedia.org/wiki/Leni_Riefenstahl

 
http://en.wikipedia.org/wiki/Das_Blaue_Licht



Subtitles:

 
http://www.opensubtitles.org/en/search/imdbid-22694/sublanguageid-all


Director:
Leni Riefenstahl



        Leni Riefenstahl ... 	Junta
	Mathias Wieman	... 	Vigo
	Beni Führer	... 	Tonio
	Max Holzboer	... 	Innkeeper
	Martha Mair	... 	Lucia


 Video
      Format : MPEG-4 Visual
      Format settings, BVOP : Yes
      Format settings, QPel : No
      Format settings, GMC : No warppoints
      Format settings, Matrix : Default (H.263)
      Muxing mode : Packed bitstream
      Codec ID : DX50
      Codec ID/Hint : DivX 5
      Duration : 1h 19mn
      Bit rate : 856 Kbps
      Width : 640 pixels
      Height : 480 pixels
      Display aspect ratio : 4/3
      Frame rate : 25.000 fps
      Resolution : 24 bits
      Colorimetry : 4:2:0
      Scan type : Progressive
      Bits/(Pixel*Frame) : 0.111
      Stream size : 486 MiB (86%)
      Title : Video 
      Writing library : DivX 2682
   Audio
      Format : MPEG Audio
      Format version : Version 1
      Format profile : Layer 3
      Codec ID : 55
      Codec ID/Hint : MP3
      Duration : 1h 19mn
      Bit rate mode : Constant
      Bit rate : 128 Kbps
      Channel(s) : 2 channels
      Sampling rate : 48.0 KHz
      Resolution : 16 bits
      Stream size : 72.7 MiB (13%)
      Alignment : Split accross interleaves
      Interleave, duration : 40 ms (1.00 video frame)
      Interleave, preload duration : 500 ms
      Title : Audio 


Please seed at least as much as you D/L.
=======================================
Thanks 

John
